<?xml version="1.0" encoding="UTF-8"?>
<svg width="303px" height="244px" viewBox="0 0 303 244" version="1.1" xmlns="http://www.w3.org/2000/svg" xmlns:xlink="http://www.w3.org/1999/xlink">
    <title>Group 5</title>
    <defs>
        <filter x="-5.6%" y="-9.0%" width="111.2%" height="118.0%" filterUnits="objectBoundingBox" id="filter-1">
            <feOffset dx="0" dy="2" in="SourceAlpha" result="shadowOffsetOuter1"></feOffset>
            <feGaussianBlur stdDeviation="2" in="shadowOffsetOuter1" result="shadowBlurOuter1"></feGaussianBlur>
            <feColorMatrix values="0 0 0 0 0   0 0 0 0 0   0 0 0 0 0  0 0 0 0.5 0" type="matrix" in="shadowBlurOuter1" result="shadowMatrixOuter1"></feColorMatrix>
            <feMerge>
                <feMergeNode in="shadowMatrixOuter1"></feMergeNode>
                <feMergeNode in="SourceGraphic"></feMergeNode>
            </feMerge>
        </filter>
        <linearGradient x1="50%" y1="86.1806163%" x2="50%" y2="0%" id="linearGradient-2">
            <stop stop-color="#A01031" offset="0%"></stop>
            <stop stop-color="#E31646" offset="100%"></stop>
        </linearGradient>
        <filter x="0.0%" y="0.0%" width="100.0%" height="100.0%" filterUnits="objectBoundingBox" id="filter-3">
            <feGaussianBlur stdDeviation="0" in="SourceGraphic"></feGaussianBlur>
        </filter>
        <path d="M179.419532,130.846203 C180.586829,130.846203 181.609168,130.659283 182.486548,130.285443 C183.363929,129.911602 184.084906,129.425228 184.649482,128.826321 C185.214057,128.227413 185.627952,127.617062 185.891166,126.995266 C186.15438,126.37347 186.285987,125.795544 186.285987,125.261486 C186.285987,124.84187 186.141028,124.490917 185.851111,124.20863 C185.561194,123.926342 185.214057,123.785198 184.809699,123.785198 C184.336676,123.785198 183.993354,123.924435 183.779731,124.202908 C183.566108,124.481381 183.386817,124.84187 183.241858,125.284374 C182.898536,126.22279 182.389274,126.934231 181.714072,127.418698 C181.038871,127.903164 180.212989,128.145397 179.236426,128.145397 C178.336158,128.145397 177.55033,127.931774 176.878943,127.504528 C176.207557,127.077282 175.688758,126.430691 175.322547,125.564755 C174.956336,124.698818 174.77323,123.613537 174.77323,122.308911 C174.77323,120.355786 175.187125,118.84898 176.014914,117.788494 C176.842704,116.728008 177.954688,116.197766 179.350867,116.197766 C180.228248,116.197766 180.966391,116.403759 181.565299,116.815746 C182.164206,117.227734 182.684913,117.849529 183.127417,118.681133 C183.394446,119.184673 183.63668,119.53944 183.854117,119.745434 C184.071555,119.951428 184.397712,120.054424 184.832587,120.054424 C185.221686,120.054424 185.553565,119.905651 185.828223,119.608105 C186.102881,119.310558 186.24021,118.967236 186.24021,118.578137 C186.24021,117.868603 185.957923,117.1152 185.393348,116.317928 C184.828772,115.520657 184.016242,114.851177 182.955756,114.30949 C181.89527,113.767803 180.686011,113.49696 179.327979,113.49696 C178.214087,113.49696 177.165046,113.695324 176.180854,114.092053 C175.196662,114.488781 174.338355,115.066708 173.605933,115.825833 C172.873511,116.584957 172.310843,117.498577 171.91793,118.566693 C171.525016,119.634808 171.328559,120.844067 171.328559,122.19447 C171.328559,123.026074 171.40676,123.811901 171.563163,124.551953 C171.719565,125.292004 171.954169,125.988186 172.266974,126.640499 C172.57978,127.292813 172.957435,127.882183 173.399939,128.408611 C173.89585,128.988445 174.439444,129.455746 175.030723,129.810513 C175.622001,130.16528 176.280036,130.426586 177.004828,130.594433 C177.729621,130.76228 178.534522,130.846203 179.419532,130.846203 Z M190.646186,130.846203 C191.103949,130.846203 191.481604,130.687893 191.779151,130.371273 C192.076697,130.054653 192.22547,129.579724 192.22547,128.946484 L192.22547,128.946484 L192.22547,126.337231 C192.22547,125.398815 192.255988,124.603451 192.317023,123.951138 C192.378058,123.298824 192.488685,122.736157 192.648902,122.263134 C192.809119,121.790112 193.034186,121.433438 193.324103,121.193112 C193.61402,120.952786 193.987861,120.832623 194.445624,120.832623 C194.781318,120.832623 195.168509,120.903195 195.6072,121.044338 C196.04589,121.185482 196.322455,121.256054 196.436896,121.256054 C196.742072,121.256054 197.026267,121.132076 197.289481,120.884121 C197.552695,120.636166 197.684302,120.321453 197.684302,119.939984 C197.684302,119.398297 197.375312,118.963421 196.757331,118.635357 C196.13935,118.307293 195.502295,118.143261 194.846167,118.143261 C194.19004,118.143261 193.665519,118.307293 193.272605,118.635357 C192.879691,118.963421 192.496314,119.447888 192.122474,120.088757 C192.099585,119.447888 191.9737,118.963421 191.744819,118.635357 C191.515937,118.307293 191.142096,118.143261 190.623298,118.143261 C189.608588,118.143261 189.101233,118.845165 189.101233,120.248974 L189.101233,120.248974 L189.101233,128.946484 C189.101233,129.572094 189.246192,130.045117 189.536109,130.365551 C189.826026,130.685986 190.196051,130.846203 190.646186,130.846203 Z M204.573645,130.846203 C205.451026,130.846203 206.227317,130.731762 206.902518,130.50288 C207.57772,130.273998 208.13848,129.985989 208.5848,129.638851 C209.031119,129.291714 209.364905,128.929318 209.586158,128.551663 C209.80741,128.174008 209.918036,127.844036 209.918036,127.561749 C209.918036,127.241314 209.818854,126.993359 209.62049,126.817883 C209.422126,126.642407 209.162726,126.554669 208.842292,126.554669 C208.544745,126.554669 208.315863,126.623333 208.155646,126.760662 C207.766547,127.126873 207.449927,127.41679 207.205787,127.630413 C206.961646,127.844036 206.694617,128.044308 206.4047,128.231228 C206.114783,128.418148 205.815329,128.555477 205.506339,128.643215 C205.197348,128.730953 204.855933,128.774822 204.482093,128.774822 C203.925147,128.774822 203.415885,128.637493 202.954306,128.362835 C202.492728,128.088177 202.122702,127.680004 201.84423,127.138317 C201.565757,126.59663 201.422706,125.97102 201.415076,125.261486 L201.415076,125.261486 L207.526221,125.261486 C208.342566,125.261486 208.975806,125.145138 209.42594,124.912441 C209.876075,124.679745 210.101142,124.170483 210.101142,123.384655 C210.101142,122.537792 209.883704,121.706188 209.448829,120.889843 C209.013953,120.073498 208.359733,119.407833 207.486167,118.892849 C206.612601,118.377865 205.565467,118.120373 204.344764,118.120373 C203.406348,118.120373 202.551856,118.271053 201.781287,118.572415 C201.010718,118.873776 200.36222,119.306744 199.835791,119.871319 C199.309363,120.435894 198.90882,121.113003 198.634162,121.902645 C198.359504,122.692288 198.222175,123.548687 198.222175,124.471844 C198.222175,126.432598 198.77912,127.98518 199.893012,129.129589 C201.006904,130.273998 202.567115,130.846203 204.573645,130.846203 Z M207.079902,123.487652 L201.415076,123.487652 C201.521888,122.434796 201.825156,121.639431 202.324881,121.101559 C202.824607,120.563687 203.463569,120.29475 204.241767,120.29475 C205.058112,120.29475 205.716147,120.559872 206.215873,121.090115 C206.715598,121.620358 207.003608,122.419537 207.079902,123.487652 L207.079902,123.487652 Z M222.769751,130.846203 C223.204627,130.846203 223.559394,130.69743 223.834052,130.399883 C224.10871,130.102337 224.246039,129.656017 224.246039,129.060925 L224.246039,129.060925 L224.246039,115.282238 C224.246039,114.694775 224.118247,114.250363 223.862662,113.949001 C223.607077,113.64764 223.242774,113.49696 222.769751,113.49696 C222.296729,113.49696 221.932425,113.660992 221.676841,113.989056 C221.421256,114.31712 221.293464,114.801586 221.293464,115.442455 L221.293464,115.442455 L221.293464,120.054424 C220.706,119.413555 220.103278,118.938625 219.485297,118.629635 C218.867316,118.320645 218.108191,118.166149 217.207923,118.166149 C215.651526,118.166149 214.396491,118.711651 213.442817,119.802654 C212.489142,120.893658 212.012305,122.415722 212.012305,124.368847 C212.012305,125.292004 212.132468,126.150311 212.372794,126.943768 C212.61312,127.737225 212.965979,128.427685 213.431373,129.015148 C213.896766,129.602612 214.447989,130.054653 215.085044,130.371273 C215.722098,130.687893 216.414466,130.846203 217.162146,130.846203 C217.726722,130.846203 218.247428,130.768002 218.724265,130.611599 C219.201102,130.455197 219.643607,130.226315 220.05178,129.924954 C220.459952,129.623593 220.873847,129.232586 221.293464,128.751934 L221.293464,128.751934 L221.293464,129.060925 C221.293464,129.633129 221.4327,130.073727 221.711173,130.382717 C221.989646,130.691708 222.342505,130.846203 222.769751,130.846203 Z M218.12345,128.4315 C217.581763,128.4315 217.082038,128.280819 216.624274,127.979458 C216.16651,127.678097 215.806022,127.22987 215.542807,126.634777 C215.279593,126.039684 215.147986,125.318707 215.147986,124.471844 C215.147986,123.670757 215.271964,122.966946 215.519919,122.360409 C215.767875,121.753872 216.116919,121.288479 216.567054,120.96423 C217.017188,120.63998 217.528357,120.477856 218.100562,120.477856 C218.649878,120.477856 219.155326,120.636166 219.616904,120.952786 C220.078483,121.269406 220.444693,121.727169 220.715537,122.326077 C220.98638,122.924984 221.121802,123.64024 221.121802,124.471844 C221.121802,125.356854 220.98638,126.094998 220.715537,126.686276 C220.444693,127.277554 220.082297,127.716244 219.628348,128.002346 C219.174399,128.288448 218.672767,128.4315 218.12345,128.4315 Z M228.961005,116.689861 C229.380622,116.689861 229.743018,116.55444 230.048194,116.283596 C230.35337,116.012753 230.505957,115.637005 230.505957,115.156353 C230.505957,114.660443 230.349555,114.282787 230.03675,114.023388 C229.723945,113.763989 229.365363,113.634289 228.961005,113.634289 C228.541388,113.634289 228.17327,113.77734 227.85665,114.063442 C227.54003,114.349545 227.38172,114.713848 227.38172,115.156353 C227.38172,115.644634 227.536216,116.022289 227.845206,116.289318 C228.154197,116.556347 228.52613,116.689861 228.961005,116.689861 Z M228.926673,130.846203 C229.384436,130.846203 229.762092,130.685986 230.059638,130.365551 C230.357184,130.045117 230.505957,129.572094 230.505957,128.946484 L230.505957,128.946484 L230.505957,119.917095 C230.505957,119.36015 230.357184,118.925274 230.059638,118.612469 C229.762092,118.299664 229.384436,118.143261 228.926673,118.143261 C228.468909,118.143261 228.096976,118.299664 227.810874,118.612469 C227.524772,118.925274 227.38172,119.390667 227.38172,120.008648 L227.38172,120.008648 L227.38172,128.946484 C227.38172,129.556835 227.524772,130.026043 227.810874,130.354107 C228.096976,130.682171 228.468909,130.846203 228.926673,130.846203 Z M237.692847,130.846203 C238.722815,130.846203 239.512458,130.712689 240.061774,130.44566 C240.611091,130.178631 240.885749,129.793347 240.885749,129.289807 C240.885749,128.99226 240.784659,128.742397 240.58248,128.540219 C240.380301,128.33804 240.153327,128.23695 239.901557,128.23695 C239.726081,128.23695 239.48194,128.269375 239.169135,128.334225 L239.018137,128.363948 C238.775479,128.408982 238.577857,128.4315 238.425269,128.4315 C238.089576,128.4315 237.847342,128.349484 237.698569,128.185452 C237.549796,128.02142 237.458243,127.807797 237.423911,127.544583 C237.389579,127.281368 237.372413,126.905621 237.372413,126.417339 L237.372413,126.417339 L237.372413,120.672405 L237.956061,120.672405 C238.574042,120.672405 239.048972,120.588482 239.380851,120.420635 C239.712729,120.252789 239.878669,119.959057 239.878669,119.53944 C239.878669,119.211376 239.76232,118.94244 239.529624,118.732632 C239.296927,118.522823 238.959327,118.417919 238.516822,118.417919 L238.516822,118.417919 L237.372413,118.417919 L237.372413,116.289318 C237.372413,115.76289 237.343802,115.356625 237.286582,115.070522 C237.229361,114.78442 237.09394,114.542187 236.880317,114.343823 C236.559882,114.046276 236.201301,113.897503 235.804572,113.897503 C235.522284,113.897503 235.2667,113.96426 235.037818,114.097775 C234.808936,114.231289 234.63346,114.404858 234.51139,114.618481 C234.389319,114.824474 234.314933,115.070522 234.28823,115.356625 C234.261527,115.642727 234.248176,116.037548 234.248176,116.541088 L234.248176,116.541088 L234.248176,118.417919 L233.904853,118.417919 C233.43183,118.417919 233.071341,118.522823 232.823386,118.732632 C232.575431,118.94244 232.451453,119.211376 232.451453,119.53944 C232.451453,119.867504 232.569709,120.138348 232.80622,120.351971 C233.042731,120.565594 233.386054,120.672405 233.836188,120.672405 L233.836188,120.672405 L234.248176,120.672405 L234.248176,126.66911 C234.248176,127.638043 234.326377,128.412426 234.482779,128.99226 C234.639182,129.572094 234.969153,130.026043 235.472693,130.354107 C235.976233,130.682171 236.716285,130.846203 237.692847,130.846203 Z" id="path-4"></path>
        <filter x="-5.8%" y="-11.5%" width="111.5%" height="146.1%" filterUnits="objectBoundingBox" id="filter-5">
            <feGaussianBlur stdDeviation="0" in="SourceGraphic"></feGaussianBlur>
        </filter>
        <filter x="-10.1%" y="-28.8%" width="120.1%" height="180.7%" filterUnits="objectBoundingBox" id="filter-6">
            <feOffset dx="0" dy="2" in="SourceAlpha" result="shadowOffsetOuter1"></feOffset>
            <feGaussianBlur stdDeviation="2" in="shadowOffsetOuter1" result="shadowBlurOuter1"></feGaussianBlur>
            <feColorMatrix values="0 0 0 0 0.751330389   0 0 0 0 0.0434506047   0 0 0 0 0.0434506047  0 0 0 0.5 0" type="matrix" in="shadowBlurOuter1"></feColorMatrix>
        </filter>
    </defs>
    <g id="Page-1" stroke="none" stroke-width="1" fill="none" fill-rule="evenodd">
        <g id="Artboard" transform="translate(-54.000000, -72.000000)" fill-rule="nonzero">
            <g id="Group-5" transform="translate(54.687500, 84.375000)">
                <g id="Group-4" transform="translate(65.625000, 0.000000)">
                    <g id="Group" transform="translate(76.562500, 0.000000)">
                        <g>
                            <path d="M10.3428906,53.4761719 C-1.51828125,41.6117969 -1.51828125,22.3097656 10.3428906,10.4389844 C22.2104687,-1.4221875 41.5125,-1.4221875 53.3800781,10.4389844 C65.2444531,22.3065625 65.2444531,41.6085938 53.3800781,53.4761719 C41.5157031,65.34375 22.2104687,65.3405469 10.3428906,53.4761719 Z" id="Path" fill="#FFD740"></path>
                            <path d="M32.03125,3.203125 C47.9283594,3.203125 60.859375,16.1341406 60.859375,32.03125 C60.859375,47.9283594 47.9283594,60.859375 32.03125,60.859375 C16.1341406,60.859375 3.203125,47.9283594 3.203125,32.03125 C3.203125,16.1341406 16.1341406,3.203125 32.03125,3.203125 M32.03125,0 C14.3403906,0 0,14.3435937 0,32.03125 C0,49.7189062 14.3403906,64.0625 32.03125,64.0625 C49.7221094,64.0625 64.0625,49.7189062 64.0625,32.03125 C64.0625,14.3435938 49.7221094,0 32.03125,0 L32.03125,0 Z" id="Shape" fill="#FDD835"></path>
                        </g>
                        <path d="M7.0084375,49.0910938 C1.99234375,37.4125 4.2025,23.3796094 13.7382031,13.8375 C23.7735937,3.8053125 38.7866406,1.870625 50.7919531,7.94375 C50.7919531,7.60101563 50.7983594,7.26148438 50.8175781,6.92195312 C38.4791406,-0.631015625 22.1528125,0.893671875 11.4735938,11.5728906 C1.27484375,21.7716406 -0.6021875,37.1338281 5.8296875,49.2416406 C6.22046875,49.1807813 6.61125,49.123125 7.0084375,49.0910938 Z" id="Path" fill="#FFFFFF"></path>
                        <g transform="translate(6.406250, 6.406250)">
                            <path d="M25.625,49.6484375 C12.376875,49.6484375 1.6015625,38.873125 1.6015625,25.625 C1.6015625,12.376875 12.376875,1.6015625 25.625,1.6015625 C38.873125,1.6015625 49.6484375,12.376875 49.6484375,25.625 C49.6484375,38.873125 38.873125,49.6484375 25.625,49.6484375 Z" id="Path" fill="#FFE57F"></path>
                            <path d="M25.625,3.203125 C37.9858594,3.203125 48.046875,13.2641406 48.046875,25.625 C48.046875,37.9858594 37.9858594,48.046875 25.625,48.046875 C13.2641406,48.046875 3.203125,37.9858594 3.203125,25.625 C3.203125,13.2641406 13.2641406,3.203125 25.625,3.203125 M25.625,0 C11.4735938,0 0,11.48 0,25.625 C0,39.77 11.4735938,51.25 25.625,51.25 C39.7764063,51.25 51.25,39.77 51.25,25.625 C51.25,11.48 39.7764063,0 25.625,0 L25.625,0 Z" id="Shape" fill="#FFC400"></path>
                        </g>
                        <path d="M32.03125,22.421875 C34.3342969,22.421875 35.234375,24.0907031 35.234375,25.625 L41.640625,25.625 C41.640625,23.0176563 39.4817187,20.4391406 35.234375,19.5582813 L35.234375,16.015625 L28.828125,16.015625 L28.828125,19.5134375 C24.5807812,20.2821875 22.421875,22.7453906 22.421875,27.2265625 C22.421875,31.4322656 25.7242969,35.234375 32.03125,35.234375 C33.8794531,35.234375 35.234375,36.6373437 35.234375,38.4375 C35.234375,40.3433594 34.1645312,41.640625 32.03125,41.640625 C29.8979688,41.640625 28.828125,40.4650781 28.828125,38.4375 L22.421875,38.4375 C22.421875,42.4253906 24.6128125,44.1390625 28.828125,44.6515625 L28.828125,48.046875 L35.234375,48.046875 L35.234375,44.6035156 C39.4817187,43.9628906 41.7207031,41.8039844 41.640625,36.8359375 C41.640625,32.4316406 38.4375,28.8313281 32.03125,28.8313281 C30.2278906,28.8313281 28.828125,27.82875 28.828125,25.625 C28.828125,23.9657812 29.7282031,22.421875 32.03125,22.421875 Z" id="Path" fill="#FFAB00"></path>
                        <path d="M32.03125,3.203125 C47.9283594,3.203125 60.859375,16.1341406 60.859375,32.03125 C60.859375,47.9283594 47.9283594,60.859375 32.03125,60.859375 C16.1341406,60.859375 3.203125,47.9283594 3.203125,32.03125 C3.203125,16.1341406 16.1341406,3.203125 32.03125,3.203125 M32.03125,0 C14.3403906,0 0,14.3435937 0,32.03125 C0,49.7189062 14.3403906,64.0625 32.03125,64.0625 C49.7221094,64.0625 64.0625,49.7189062 64.0625,32.03125 C64.0625,14.3435938 49.7221094,0 32.03125,0 L32.03125,0 Z" id="Shape" fill="#FFC400"></path>
                    </g>
                    <g id="Group" transform="translate(0.000000, 40.625000)">
                        <g>
                            <path d="M10.3428906,53.4761719 C-1.51828125,41.6117969 -1.51828125,22.3097656 10.3428906,10.4389844 C22.2104687,-1.4221875 41.5125,-1.4221875 53.3800781,10.4389844 C65.2444531,22.3065625 65.2444531,41.6085938 53.3800781,53.4761719 C41.5157031,65.34375 22.2104687,65.3405469 10.3428906,53.4761719 Z" id="Path" fill="#FFD740"></path>
                            <path d="M32.03125,3.203125 C47.9283594,3.203125 60.859375,16.1341406 60.859375,32.03125 C60.859375,47.9283594 47.9283594,60.859375 32.03125,60.859375 C16.1341406,60.859375 3.203125,47.9283594 3.203125,32.03125 C3.203125,16.1341406 16.1341406,3.203125 32.03125,3.203125 M32.03125,0 C14.3403906,0 0,14.3435937 0,32.03125 C0,49.7189062 14.3403906,64.0625 32.03125,64.0625 C49.7221094,64.0625 64.0625,49.7189062 64.0625,32.03125 C64.0625,14.3435938 49.7221094,0 32.03125,0 L32.03125,0 Z" id="Shape" fill="#FDD835"></path>
                        </g>
                        <path d="M7.0084375,49.0910938 C1.99234375,37.4125 4.2025,23.3796094 13.7382031,13.8375 C23.7735937,3.8053125 38.7866406,1.870625 50.7919531,7.94375 C50.7919531,7.60101563 50.7983594,7.26148438 50.8175781,6.92195312 C38.4791406,-0.631015625 22.1528125,0.893671875 11.4735938,11.5728906 C1.27484375,21.7716406 -0.6021875,37.1338281 5.8296875,49.2416406 C6.22046875,49.1807813 6.61125,49.123125 7.0084375,49.0910938 Z" id="Path" fill="#FFFFFF"></path>
                        <g transform="translate(6.406250, 6.406250)">
                            <path d="M25.625,49.6484375 C12.376875,49.6484375 1.6015625,38.873125 1.6015625,25.625 C1.6015625,12.376875 12.376875,1.6015625 25.625,1.6015625 C38.873125,1.6015625 49.6484375,12.376875 49.6484375,25.625 C49.6484375,38.873125 38.873125,49.6484375 25.625,49.6484375 Z" id="Path" fill="#FFE57F"></path>
                            <path d="M25.625,3.203125 C37.9858594,3.203125 48.046875,13.2641406 48.046875,25.625 C48.046875,37.9858594 37.9858594,48.046875 25.625,48.046875 C13.2641406,48.046875 3.203125,37.9858594 3.203125,25.625 C3.203125,13.2641406 13.2641406,3.203125 25.625,3.203125 M25.625,0 C11.4735938,0 0,11.48 0,25.625 C0,39.77 11.4735938,51.25 25.625,51.25 C39.7764063,51.25 51.25,39.77 51.25,25.625 C51.25,11.48 39.7764063,0 25.625,0 L25.625,0 Z" id="Shape" fill="#FFC400"></path>
                        </g>
                        <path d="M32.03125,22.421875 C34.3342969,22.421875 35.234375,24.0907031 35.234375,25.625 L41.640625,25.625 C41.640625,23.0176563 39.4817187,20.4391406 35.234375,19.5582813 L35.234375,16.015625 L28.828125,16.015625 L28.828125,19.5134375 C24.5807812,20.2821875 22.421875,22.7453906 22.421875,27.2265625 C22.421875,31.4322656 25.7242969,35.234375 32.03125,35.234375 C33.8794531,35.234375 35.234375,36.6373437 35.234375,38.4375 C35.234375,40.3433594 34.1645312,41.640625 32.03125,41.640625 C29.8979688,41.640625 28.828125,40.4650781 28.828125,38.4375 L22.421875,38.4375 C22.421875,42.4253906 24.6128125,44.1390625 28.828125,44.6515625 L28.828125,48.046875 L35.234375,48.046875 L35.234375,44.6035156 C39.4817187,43.9628906 41.7207031,41.8039844 41.640625,36.8359375 C41.640625,32.4316406 38.4375,28.8313281 32.03125,28.8313281 C30.2278906,28.8313281 28.828125,27.82875 28.828125,25.625 C28.828125,23.9657812 29.7282031,22.421875 32.03125,22.421875 Z" id="Path" fill="#FFAB00"></path>
                        <path d="M32.03125,3.203125 C47.9283594,3.203125 60.859375,16.1341406 60.859375,32.03125 C60.859375,47.9283594 47.9283594,60.859375 32.03125,60.859375 C16.1341406,60.859375 3.203125,47.9283594 3.203125,32.03125 C3.203125,16.1341406 16.1341406,3.203125 32.03125,3.203125 M32.03125,0 C14.3403906,0 0,14.3435937 0,32.03125 C0,49.7189062 14.3403906,64.0625 32.03125,64.0625 C49.7221094,64.0625 64.0625,49.7189062 64.0625,32.03125 C64.0625,14.3435938 49.7221094,0 32.03125,0 L32.03125,0 Z" id="Shape" fill="#FFC400"></path>
                    </g>
                    <g id="Group" transform="translate(38.281250, 12.500000)">
                        <g>
                            <path d="M10.3428906,53.4761719 C-1.51828125,41.6117969 -1.51828125,22.3097656 10.3428906,10.4389844 C22.2104687,-1.4221875 41.5125,-1.4221875 53.3800781,10.4389844 C65.2444531,22.3065625 65.2444531,41.6085938 53.3800781,53.4761719 C41.5157031,65.34375 22.2104687,65.3405469 10.3428906,53.4761719 Z" id="Path" fill="#FFD740"></path>
                            <path d="M32.03125,3.203125 C47.9283594,3.203125 60.859375,16.1341406 60.859375,32.03125 C60.859375,47.9283594 47.9283594,60.859375 32.03125,60.859375 C16.1341406,60.859375 3.203125,47.9283594 3.203125,32.03125 C3.203125,16.1341406 16.1341406,3.203125 32.03125,3.203125 M32.03125,0 C14.3403906,0 0,14.3435937 0,32.03125 C0,49.7189062 14.3403906,64.0625 32.03125,64.0625 C49.7221094,64.0625 64.0625,49.7189062 64.0625,32.03125 C64.0625,14.3435938 49.7221094,0 32.03125,0 L32.03125,0 Z" id="Shape" fill="#FDD835"></path>
                        </g>
                        <path d="M7.0084375,49.0910938 C1.99234375,37.4125 4.2025,23.3796094 13.7382031,13.8375 C23.7735937,3.8053125 38.7866406,1.870625 50.7919531,7.94375 C50.7919531,7.60101563 50.7983594,7.26148438 50.8175781,6.92195312 C38.4791406,-0.631015625 22.1528125,0.893671875 11.4735938,11.5728906 C1.27484375,21.7716406 -0.6021875,37.1338281 5.8296875,49.2416406 C6.22046875,49.1807813 6.61125,49.123125 7.0084375,49.0910938 Z" id="Path" fill="#FFFFFF"></path>
                        <g transform="translate(6.406250, 6.406250)">
                            <path d="M25.625,49.6484375 C12.376875,49.6484375 1.6015625,38.873125 1.6015625,25.625 C1.6015625,12.376875 12.376875,1.6015625 25.625,1.6015625 C38.873125,1.6015625 49.6484375,12.376875 49.6484375,25.625 C49.6484375,38.873125 38.873125,49.6484375 25.625,49.6484375 Z" id="Path" fill="#FFE57F"></path>
                            <path d="M25.625,3.203125 C37.9858594,3.203125 48.046875,13.2641406 48.046875,25.625 C48.046875,37.9858594 37.9858594,48.046875 25.625,48.046875 C13.2641406,48.046875 3.203125,37.9858594 3.203125,25.625 C3.203125,13.2641406 13.2641406,3.203125 25.625,3.203125 M25.625,0 C11.4735938,0 0,11.48 0,25.625 C0,39.77 11.4735938,51.25 25.625,51.25 C39.7764063,51.25 51.25,39.77 51.25,25.625 C51.25,11.48 39.7764063,0 25.625,0 L25.625,0 Z" id="Shape" fill="#FFC400"></path>
                        </g>
                        <path d="M32.03125,22.421875 C34.3342969,22.421875 35.234375,24.0907031 35.234375,25.625 L41.640625,25.625 C41.640625,23.0176563 39.4817187,20.4391406 35.234375,19.5582813 L35.234375,16.015625 L28.828125,16.015625 L28.828125,19.5134375 C24.5807812,20.2821875 22.421875,22.7453906 22.421875,27.2265625 C22.421875,31.4322656 25.7242969,35.234375 32.03125,35.234375 C33.8794531,35.234375 35.234375,36.6373437 35.234375,38.4375 C35.234375,40.3433594 34.1645312,41.640625 32.03125,41.640625 C29.8979688,41.640625 28.828125,40.4650781 28.828125,38.4375 L22.421875,38.4375 C22.421875,42.4253906 24.6128125,44.1390625 28.828125,44.6515625 L28.828125,48.046875 L35.234375,48.046875 L35.234375,44.6035156 C39.4817187,43.9628906 41.7207031,41.8039844 41.640625,36.8359375 C41.640625,32.4316406 38.4375,28.8313281 32.03125,28.8313281 C30.2278906,28.8313281 28.828125,27.82875 28.828125,25.625 C28.828125,23.9657812 29.7282031,22.421875 32.03125,22.421875 Z" id="Path" fill="#FFAB00"></path>
                        <path d="M32.03125,3.203125 C47.9283594,3.203125 60.859375,16.1341406 60.859375,32.03125 C60.859375,47.9283594 47.9283594,60.859375 32.03125,60.859375 C16.1341406,60.859375 3.203125,47.9283594 3.203125,32.03125 C3.203125,16.1341406 16.1341406,3.203125 32.03125,3.203125 M32.03125,0 C14.3403906,0 0,14.3435937 0,32.03125 C0,49.7189062 14.3403906,64.0625 32.03125,64.0625 C49.7221094,64.0625 64.0625,49.7189062 64.0625,32.03125 C64.0625,14.3435938 49.7221094,0 32.03125,0 L32.03125,0 Z" id="Shape" fill="#FFC400"></path>
                    </g>
                </g>
                <g id="Group-3" transform="translate(0.000000, 0.196653)">
                    <g id="Group-2" transform="translate(37.990513, 0.000000)">
                        <g id="Money" filter="url(#filter-1)" transform="translate(126.038738, 108.284962) rotate(-27.000000) translate(-126.038738, -108.284962) translate(18.616863, 41.488087)">
                            <rect id="Rectangle" fill="url(#linearGradient-2)" x="-3.76997017e-14" y="-3.1846561e-15" width="214.84375" height="133.59375" rx="5"></rect>
                            <circle id="Oval" fill="#F1C40F" cx="107.8125" cy="67.1875" r="42.1875"></circle>
                            <path d="M88.876016,88.3363098 C90.0153389,88.3363098 90.9276873,87.9847218 91.6130613,87.281546 C92.2984352,86.5783701 92.8280424,85.3188842 93.2018827,83.5030883 C93.3621,82.7198038 93.5490201,81.5893819 93.7626432,80.1118225 C93.9762662,78.6342631 94.1720874,77.4326334 94.3501066,76.5069335 C94.5281258,75.5812337 94.8307584,74.4152079 95.2580045,73.0088562 C96.272714,69.8223124 97.3897845,67.1253214 98.6092161,64.9178833 C99.8286476,62.7104451 101.012475,60.8634958 102.160699,59.3770355 C103.308923,57.8905751 104.332534,56.5331787 105.231531,55.3048461 C106.130528,54.0765136 106.580026,53.088507 106.580026,52.3408264 C106.580026,51.1124939 106.197285,50.2312988 105.431802,49.6972412 C104.66632,49.1631835 103.429086,48.8961547 101.720102,48.8961547 L101.720102,48.8961547 L83.935983,48.8961547 C82.5296313,48.8961547 81.4348132,49.0741739 80.6515287,49.4302124 C79.8682442,49.7862508 79.4766019,50.5784362 79.4766019,51.8067688 C79.4766019,52.9638936 79.8459918,53.8139353 80.5847715,54.3568939 C81.3235512,54.8998525 82.4406217,55.1713317 83.935983,55.1713317 L83.935983,55.1713317 L98.2220243,55.1713317 C95.9789823,58.019639 94.0430234,60.8812978 92.4141477,63.7563079 C90.785272,66.6313181 89.4278755,69.4351206 88.3419584,72.1677154 C87.2560412,74.9003102 86.4727567,77.2457133 85.9921049,79.2039245 C85.511453,81.1621358 85.2711271,82.7109029 85.2711271,83.8502258 C85.2711271,85.3277852 85.6004626,86.4448557 86.2591337,87.2014373 C86.9178047,87.958019 87.7900988,88.3363098 88.876016,88.3363098 Z M122.46824,88.282904 C124.818094,88.282904 126.91872,87.8512074 128.77012,86.9878143 C130.62152,86.1244211 132.210341,84.807079 133.536584,83.0357879 C134.862827,81.2644968 135.873086,79.0748606 136.567361,76.4668792 C137.261636,73.8588979 137.608774,70.8459228 137.608774,67.4279541 C137.608774,64.3660237 137.279438,61.6245279 136.620767,59.2034668 C135.962096,56.7824056 135.018594,54.775239 133.790262,53.1819671 C132.561929,51.5886952 131.048766,50.3737141 129.250772,49.5370239 C127.452778,48.7003336 125.405557,48.2819885 123.109109,48.2819885 C121.115294,48.2819885 119.295048,48.620225 117.64837,49.296698 C116.001692,49.9731709 114.581989,50.9166727 113.389261,52.1272033 C112.196532,53.3377339 111.279733,54.766338 110.638864,56.4130157 C109.997995,58.0596934 109.67756,59.7998311 109.67756,61.6334289 C109.67756,63.3424133 109.962391,64.9757395 110.532052,66.5334075 C111.101714,68.0910756 111.916152,69.4529225 112.975366,70.6189483 C114.03458,71.7849741 115.289616,72.6928721 116.740472,73.3426422 C118.191329,73.9924123 119.753447,74.3172973 121.426828,74.3172973 C123.189218,74.3172973 124.795841,73.9657094 126.246698,73.2625335 C127.697554,72.5593577 129.010446,71.5134948 130.185373,70.124945 C129.936146,74.9492655 129.170663,78.3138285 127.888925,80.218634 C127.248056,81.1621358 126.473672,81.8920145 125.565774,82.4082702 C124.657876,82.9245259 123.696573,83.1826538 122.681863,83.1826538 C121.54254,83.1826538 120.51893,82.8577687 119.611032,82.2079986 C118.703134,81.5582285 118.053364,80.6992858 117.661722,79.6311706 C117.341287,78.7588765 116.869536,78.1046559 116.246469,77.6685089 C115.623402,77.2323618 114.920226,77.0142883 114.136941,77.0142883 C113.282449,77.0142883 112.579273,77.30802 112.027414,77.8954834 C111.475554,78.4829467 111.199624,79.1505188 111.199624,79.8981994 C111.199624,81.10873 111.644672,82.3682159 112.534768,83.6766571 C113.424864,84.9850982 114.724405,86.0799163 116.433389,86.9611114 C118.142373,87.8423065 120.15399,88.282904 122.46824,88.282904 Z M123.002298,69.24375 C121.204304,69.24375 119.717843,68.5405741 118.542917,67.1342224 C117.36799,65.7278706 116.780526,63.8408671 116.780526,61.4732116 C116.780526,59.0877543 117.36799,57.1695973 118.542917,55.7187408 C119.717843,54.2678843 121.150898,53.542456 122.84208,53.542456 C123.821186,53.542456 124.724634,53.7560791 125.552423,54.1833251 C126.380212,54.6105712 127.092289,55.1980346 127.688653,55.9457153 C128.285018,56.693396 128.747868,57.5790415 129.077203,58.6026519 C129.406539,59.6262624 129.571206,60.7433329 129.571206,61.9538635 C129.571206,63.4492248 129.255222,64.748765 128.623254,65.8524841 C127.991286,66.9562032 127.172398,67.7973439 126.166589,68.3759063 C125.160781,68.9544687 124.106017,69.24375 123.002298,69.24375 Z" id="79" fill="#A01031" filter="url(#filter-3)"></path>
                            <circle id="Oval" fill="#F1C40F" cx="25" cy="26.5625" r="11.71875"></circle>
                            <circle id="Oval" fill="#F1C40F" cx="188.28125" cy="26.5625" r="11.71875"></circle>
                            <circle id="Oval" fill="#F1C40F" cx="25" cy="108.59375" r="11.71875"></circle>
                        </g>
                        <g id="Credit" filter="url(#filter-5)" transform="translate(206.107154, 122.171581) rotate(-27.000000) translate(-206.107154, -122.171581) ">
                            <use fill="black" fill-opacity="1" filter="url(#filter-6)" xlink:href="#path-4"></use>
                            <use fill="#F1C40F" xlink:href="#path-4"></use>
                        </g>
                    </g>
                    <g id="Hand" transform="translate(0.000000, 141.209597)">
                        <path d="M196.875,27.2774414 C196.74264,27.3141602 196.592023,27.3508789 196.592023,27.3508789 L192.055263,27.5390625 C192.055263,27.5390625 185.902796,4.58984375 160.074301,4.58984375 L128.330674,4.58984375 L119.284539,0 L110.15625,0 L110.15625,18.359375 L119.284539,18.359375 L119.284539,32.1289062 L119.284539,36.71875 L160.361842,36.71875 L196.875,36.71875 L196.875,27.2774414 Z" id="Path" fill="#37474F" opacity="0.1"></path>
                        <path d="M105.097431,36.71875 L187.5,36.71875 C187.5,32.1614583 187.5,9.375 155.277137,9.375 L105.092869,9.375 C97.5378552,9.375 91.40625,15.5 91.40625,23.046875 C91.40625,30.59375 97.5378552,36.71875 105.097431,36.71875 Z" id="Path" fill="#F4D0A1"></path>
                        <g id="Group" transform="translate(17.968750, 0.000000)" fill="#F4D0A1">
                            <path d="M169.253485,32.8147705 C158.056624,35.0723315 146.543779,36.6338493 146.543779,36.6338493 L169.441244,36.6338493 C169.441244,35.8416423 169.422926,34.4861899 169.253485,32.8147705 Z" id="Path"></path>
                            <path d="M219.815668,4.57923116 C205.655876,13.073705 196.918203,22.8961558 187.759217,27.5990262 C184.828341,29.101014 179.552765,30.566368 173.736809,31.8668696 C173.924568,33.3963329 174.020737,34.9853261 174.020737,36.6338493 L174.020737,41.2130804 L169.441244,41.2130804 L96.1693548,41.2130804 L96.1693548,36.6338493 L146.543779,36.6338493 L105.328341,27.475387 L109.907834,13.7376935 C109.907834,13.7376935 100.748848,0 73.2718894,0 C50.374424,0 45.7949309,9.15846232 36.6359447,9.15846232 L0,9.15846232 L0,68.6884674 L50.374424,68.6884674 L123.976037,89.1347345 C128.848618,90.4856077 136.519268,89.8490946 141.103341,87.7105936 L201.497696,59.5300051 L247.292627,18.3169246 C251.87212,13.7376935 242.713134,-9.15846232 219.815668,4.57923116 Z" id="Path"></path>
                        </g>
                        <path d="M238.210343,13.477021 C224.494072,22.6668521 215.349891,31.8566833 206.20571,36.5756616 C203.329865,38.0598193 198.186263,39.0523211 192.489438,39.7185839 L192.489438,41.0465145 L187.917348,41.0465145 L166.734853,41.0465145 C165.692416,41.0511094 165.056895,41.0465145 165.056895,41.0465145 L114.7639,41.0465145 L114.7639,36.4515989 L151.340624,36.4515989 L187.917348,36.4515989 C187.917348,31.8566833 185.526145,18.0719365 155.624673,18.0719365 L123.825783,18.0719365 C118.650177,14.0605752 108.728741,8.88210538 91.9034477,8.88210538 C69.0429953,8.88210538 64.4709048,18.0719365 55.3267239,18.0719365 L18.75,18.0719365 L18.75,68.616008 L69.0429953,68.616008 L142.525634,89.1323061 C147.390338,90.4878062 155.048589,89.8491129 159.625252,87.7032873 L219.921981,59.4261768 L265.642886,18.0719365 C270.214977,13.477021 265.642886,-4.90264138 238.210343,13.477021 Z" id="Path" fill="#EDBC7C"></path>
                        <path d="M182.8125,32.2265625 C182.8125,24.7875 176.7225,18.75 169.21875,18.75 C161.715,18.75 160.15625,24.7875 160.15625,32.2265625 C160.15625,33.8123047 160.251406,35.3082031 160.432656,36.71875 L181.983281,36.71875 C182.48625,35.3082031 182.8125,33.8123047 182.8125,32.2265625 Z" id="Path" fill="#F6D9B4"></path>
                        <g id="Group">
                            <rect id="Rectangle" fill="#EA2855" x="41.015625" y="4.56414474" width="13.671875" height="68.4621711" rx="5"></rect>
                            <rect id="Rectangle" fill="#CE1440" x="41.015625" y="22.8207237" width="13.671875" height="50.2055921" rx="5"></rect>
                            <rect id="Rectangle" fill="#CE1440" x="0" y="0" width="41.015625" height="86.71875" rx="10"></rect>
                            <rect id="Rectangle" fill="#A01031" x="0" y="22.8207237" width="41.015625" height="63.8980263" rx="10"></rect>
                        </g>
                    </g>
                </g>
            </g>
        </g>
    </g>
</svg>